<svg xmlns="http://www.w3.org/2000/svg" viewBox="0 0 175.3 176.3"><circle cx="87.8" cy="87.5" r="83" fill="#fff"/><path d="M87.5 2.3C40.1 2.3 1.6 40.7 1.6 88.2 1.6 135.6 40 174 87.4 174s85.8-38.4 85.8-85.8c.1-47.5-38.3-85.9-85.7-85.9h0zM35.7 132.6c-12.5-11-18.3-25-18.2-41.5 0-3.2.4-6.4 1-9.5.3-1.6.8-2.2 1.9-2.2 1 0 1.5.5 1.6 1.5 2.1 19.3 12.6 32.8 29.2 41.9 9.6 5.3 20.1 7.5 31.1 6.9 13.1-.7 24.7-5.3 34.4-14.4.6-.6 1.4-1.1 2.1-.5.8.6.5 1.5.1 2.3-5.8 10.9-14.5 18.7-26 23.5-6.9 2.9-14.1 4.2-21.6 4.2-1 0-1.3.2-1.3 1.3l-.4 19.2c0 1.1-.5.8-1.1.6-5.8-1.6-11.3-4-16.6-6.7-7.3-3.7-14-8.3-19.9-14-2.3-2.3-2.4-2.2-.5-4.9l4.4-6.3c.4-.5.4-.8-.2-1.4h0zm-4.5-82.2s-.1 0 0 0c-.1.9-.1 1.8-.1 2.7 0 .8-.3 1.1-1 1.4-2.4.8-2.4.8-2.6-1.6-.1-1.4-.2-2.8-.4-4.2-.1-.7.2-1 .8-1.2.7-.2 1.5-.4 2.1-.7.9-.4 1.1 0 1.1.8.1.9.1 1.9.1 2.8zM28 65.5c1.4-.5 2.8-.9 4.2-1.4.8-.3 1.2-.2 1.5.7.9 2.6.9 2.6-1.6 3.6-1.8.8-3.7 1.5-5.5 1.6-2.4 0-3.9-1.1-4.8-3-.6-1.3-1-2.8-1.5-4.2l-3.4-10.2c-.3-.9-.1-1.3.8-1.6.7-.2 1.5-.4 2.2-.7.9-.4 1.4-.2 1.7.8l4 12.1c.1.4.3.8.4 1.2.5 1.1 1.1 1.5 2 1.1h0zm59.8-14.4l9.9 9.3c1.6 1.5 1.6 1.8-.5 2.5l-5.3 1.8c-.8.3-1.3.2-1.9-.4l-9.4-8.9c-.5-.5-1-.7-1.7-.4-.9.4-2.2.2-2.6 1-.4.7.4 1.8.7 2.7l2.7 8.3c.5 1.4.3 1.7-1 2.1-1.6.5-3.3 1-4.9 1.6-1 .4-1.6.2-2-.9L61.6 39.3c-.5-1.5-.2-2.2 1.1-2.9 4.5-2.2 9.2-4.2 14.2-5 1.1-.2 2.1-.2 2.8-.2 6.6.3 9.6 4.2 10.8 10 .7 3.4-.2 6.4-2.7 8.9-.5.3-.5.6 0 1zM118.7 41a453.4 453.4 0 0 1 10.1 9.5c1.3 1.2 1.2 1.5-.4 2l-5.8 1.9c-.7.3-1.2.1-1.8-.4l-9.2-8.8c-.7-.6-1.2-.8-2.1-.5-2.6.9-2.6.8-1.7 3.4l2.8 8.5c.4 1.3.3 1.7-1.1 2.1l-5 1.7c-.9.3-1.5.1-1.8-.9L92.5 29.1c-.5-1.6-.3-2.4 1-3 4.9-2.4 9.9-4.6 15.5-5.2 5.5-.6 9.7 2 11.5 7.2.4 1 .7 2 .8 3.1.1.5.1 1 .1 1.3 0 2.9-.9 5.2-2.8 7-.5.7-.6.9.1 1.5zm-30.3 59.2c-.1 11.8-9.7 21.4-21.5 21.4-11.9-.1-21.5-9.7-21.5-21.5 0-11.9 9.7-21.5 21.5-21.5 11.9-.1 21.6 9.6 21.5 21.6zm-26.7-40l6.6 10.6c.8 1.3.7 1.5-.7 2l-5.3 1.8c-.9.3-1.5.1-2-.7-1.1-2-2.3-3.9-3.5-5.9-.3-.6-.7-.7-1.3-.5l-7.8 2.6c-.5.2-.8.3-.7 1l.8 6.9c.1 1-.2 1.5-1.1 1.8-1.9.6-3.8 1.2-5.7 1.9-1 .3-1.4 0-1.5-1l-1.7-20.2-1-11c0-2.6.9-4.5 3.1-5.8 2-1.2 4.2-2 6.6-2.1 2.7-.1 4.6 1.3 6 3.5 2.9 5.1 6.1 10.1 9.2 15.1zm56.2 39.2c-1.5.6-2.7.3-3.8-.8L98.4 84.7c-.3-.3-.5-.6-1-.7-.3.5.1.9.2 1.3l5.7 17c.5 1.5.4 1.8-1.1 2.3-1.4.5-2.9.9-4.3 1.4-.9.3-1.5.1-1.8-.9L85.6 74c-.4-1.2 0-2.1 1.3-2.6l4.4-1.5c1.1-.4 1.9.2 2.7.8l13.6 12.1c1.3 1.1 2.6 2.3 4 3.5.2-.8-.1-1.3-.3-1.7L105.4 67c-.5-1.5-.4-1.7 1.1-2.3 1.4-.5 2.8-.9 4.2-1.4 1-.4 1.6-.2 2 1l10.2 30.8c.5 1.6.1 2.4-1.5 3-1.1.4-2.3.8-3.5 1.3zm1.6-29.5l-2.3-6.8c-.3-1-.1-1.7.8-2.2 4.3-2.1 8.7-4.1 13.5-4.9.8-.1 1.7-.2 2.5-.2 5.4 0 9.3 2.5 11.7 7.2 2.2 4.3 3.7 8.9 4.5 13.7 1 6.2-1.6 11.1-7.2 14-4.3 2.2-9.1 3.3-13.8 4.2-1.3.2-1.7-.6-2-1.6l-7.7-23.4zM144 39.5c1.1-.4 2.3-.7 3.4-1.2.7-.3 1.2-.1 1.6.5l3.9 5.8c.3.5.5 1.1-.1 1.3-2.1.8-4.3 1.4-6.3 2.1-.7.1-1-.2-1.1-.7-.7-2.1-1.3-4.3-2-6.4-.3-.7-.1-1.2.6-1.4h0zm3.4 13.6c-.6-1.7-.5-1.8 1.2-2.4l4.4-1.5c1.6-.5 1.8-.5 2.3 1.1l8.1 24.3 2.3 6.8c.1.3.2.6.2.8 0 .8-.4 1.1-1 1.3-1.7.6-3.4 1.1-5.1 1.7-1.4.5-1.6.3-2.1-1.1l-6.3-18.8-4-12.2zM52 107l27.9 3.3c-4.2 3.5-8.7 5.9-14.2 5.6-6-.6-10.2-4-13.7-8.9zm25.4-68.4c2.8 0 4 1 4.8 3.6.6 2.3.1 3.6-1.9 4.8-1.8 1.1-3.8 1.5-5.7 2.1-.5.2-.7 0-.9-.5L71.2 41c-.1-.4-.1-.6.3-.8 2-.6 4.1-1.6 5.9-1.6zm31.3-10.2c2.3 0 3.5 1 4.3 3.6.7 2.3.2 3.7-1.9 4.9-1.8 1.1-3.8 1.6-5.8 2.2-.5.2-.7-.1-.8-.5l-2.5-7.5c-.1-.3-.3-.6.2-.8 2.1-.8 4.2-1.8 6.5-1.9zm33.5 50c.1 3-.7 4.8-2.6 6-1.6.9-3.3 1.3-5 1.9-.8.2-.7-.4-.9-.8l-4.5-13.4-2.1-6.5c-.1-.3-.4-.7 0-.8 2.2-.8 4.3-1.9 6.8-1.6 1.9.2 3.3 1.3 4.1 3 2 4.1 3.3 8.5 4.2 12.2zM44.6 50c0 .1 0-.1 0-.4s.1-.5.4-.6.5.1.6.3.3.4.4.6l6.3 10.5c.4.7.4 1-.4 1.3l-4.8 1.6c-.8.3-1.1.2-1.2-.7L44.6 50z" fill="#0180c7"/></svg>