<?xml version="1.0" encoding="UTF-8"?>
<!-- Generator: Adobe Illustrator 23.0.1, SVG Export Plug-In . SVG Version: 6.00 Build 0)  -->
<svg version="1.1" id="Calque_1" xmlns="http://www.w3.org/2000/svg" xmlns:xlink="http://www.w3.org/1999/xlink" x="0px" y="0px" viewBox="0 0 55.28 29.76" style="enable-background:new 0 0 55.28 29.76;" xml:space="preserve">
<style type="text/css">
	.st0{fill:#1485C3;}
</style>
<g>
	<g>
		<path class="st0" d="M28.42,14.17L14.98,14.2v0.98h13.44c0,0,0.3,0.77-0.12,3s-1.33,4.99-4.36,6.33C20.92,25.85,18.92,26,14.65,26    s-6.96-0.3-9.56-1.99c-2.6-1.69-3.51-3.98-3.75-5.47c-0.24-1.43-0.3-1.43-0.3-3.39L1,15.12v-0.24l0.03-0.03    c0-1.96,0.06-1.96,0.3-3.39c0.24-1.52,1.18-3.78,3.78-5.47C7.72,4.3,10.38,4,14.65,4c4.27,0,6.27,0.15,9.29,1.49    c3.03,1.34,3.93,4.04,4.36,6.27C28.73,13.99,28.42,14.17,28.42,14.17L28.42,14.17z M53.73,9.26c0,4.52-4.48,4.91-4.48,4.91H29.63    V4.36h18.22C49.25,4.36,53.73,4.74,53.73,9.26z M48.07,15.15c1.39,0,5.93,0.33,5.93,5.23s-4.54,5.23-4.54,5.23H29.63V15.15H48.07    L48.07,15.15z"/>
	</g>
</g>
</svg>